Patient4_TMGait_0pt6_02_right_31_EMG.mot
version=1
nRows=37
nColumns=33
inDegrees=no
endheader
time	1LAddLong	2LGlutMax	3LGlutMed	4LIliopsoas	5LSemiMemb	6LBicFemLong	7LRecFem	8LVastMed	9LVastLat	10LGasMed	11LTibAnt	12lTibPost	13LPeroneusLong	14LSol	15LExtDigLong	16LFlexDigLong	17RAddLong	18RGlutMax	19RGlutMed	20RIliopsoas	21RSemiMemb	22RBicFemLong	23RRecFem	24RVastMed	25RVastLat	26RGasMed	27RTibAnt	28RTibPost	29RPeroneusLong	30RSol	31RExtDigLong	32RFlexDigLong
37.727	0.000153	-0.40802	-0.034485	0.018005	0.033264	0.005341	0.13245	0.012054	0.097198	0.12528	-0.002899	0.038452	-0.16068	0.17441	-0.000458	0.019836	-0.035858	-0.77713	0.27741	0.037231	-0.13718	0.005341	0.44067	0.008087	-0.10071	-0.1236	0.003967	-0.071564	0.81558	-0.22125	-0.002289	-0.01358
37.728	-0.003357	-0.40848	-0.02182	0.038757	0.024872	0.009155	0.13046	0.007172	0.10132	0.20065	-0.010071	0.03067	-0.14801	0.1593	-0.001831	-0.000763	-0.015869	-0.8464	0.32898	0.23331	-0.10269	-0.098114	0.32654	0.35584	-0.2121	-0.12955	-0.00351	-0.11917	0.020294	-0.070038	-0.003357	-0.005951
37.729	-0.001984	-0.40985	-0.017242	0.031891	0.016022	0.000458	0.11978	0.009155	0.11948	0.11276	-0.01358	0.030975	-0.13153	0.10574	0.000458	-0.002747	-0.022583	-0.78842	-0.070343	0.26596	-0.16235	0.18631	0.045776	0.91736	0.075684	0.00351	-0.070648	-0.31952	-0.38177	-0.017548	0.002136	-0.006409
37.73	-0.005035	-0.42053	-0.007629	0.023346	0.016937	-0.001678	0.10193	0.009155	0.13702	0.032501	-0.010223	0.037079	-0.1329	0.065613	0.00061	-0.00473	-0.033417	-0.6424	0.034943	0.093079	-0.23651	0.026703	-0.16678	0.53131	0.47363	-0.088196	0.005188	0.19028	-0.31265	-0.033722	-0.000763	-0.003662
37.731	-0.002289	-0.43839	0.002441	0.011292	0.019379	-0.036011	0.11139	0.005951	0.15793	0.27374	-0.012207	0.027008	-0.11368	0.072632	-0.006256	0.003052	-0.039063	-0.80368	-0.32486	0.095978	-0.11185	-0.1268	-0.095673	0.095367	0.56152	-0.14694	0.050964	0.10208	-0.30365	0.12741	-0.003357	-0.016785
37.732	0.097656	-0.46631	0.005493	-0.015259	0.02243	-0.02655	0.11749	-0.006866	0.1532	0.017242	-0.020447	0.033569	-0.11154	0.038605	-0.009308	0.00412	-0.031281	-0.88333	-0.17425	0.13001	0.053558	-0.16083	0.26443	-0.30731	0.29236	-0.058594	-0.010529	-0.042267	0.34302	0.10803	-0.002899	-0.007629
37.733	-0.094299	-0.47516	0.016785	0.000153	0.017395	-0.032654	0.13168	0.003052	0.15869	-0.48157	-0.011597	0.031281	-0.088348	0.017395	-0.009308	0.00946	-0.090942	-0.89249	-0.051575	-0.005951	0.36362	-0.081329	0.42938	-0.36057	-0.033722	0.20966	-0.002747	-0.073395	0.10605	0.32928	0.000153	-0.012512
37.734	0.018158	-0.49576	0.037537	0.016937	0.023651	-0.015564	0.14511	-0.000305	0.15976	-0.20325	-0.004425	0.035553	-0.11749	0.042877	0.002747	0.015259	-0.092163	-0.73868	0.40237	-0.038605	0.41306	0.020447	0.35568	-0.44189	-0.17319	0.18677	0.034637	-0.021362	0.005493	0.4097	-0.003662	-0.013885
37.735	0.006104	-0.51117	0.027924	0.019379	0.023041	-0.03006	0.14832	-0.002136	0.1593	0.066528	-0.015564	0.036316	-0.12375	0.049438	0.010986	0.006256	-0.043335	-0.82398	0.038605	0.012665	0.21133	-0.068207	0.45731	-0.2446	-0.27023	0.10574	0.066376	0.063324	0.059662	0.090332	-0.002136	-0.017853
37.736	-0.011139	-0.49667	0.056305	0.001526	0.028381	-0.016479	0.18234	0.001221	0.18417	-0.11322	-0.013123	0.033875	-0.12512	0.042877	0.034485	-0.006561	-0.029144	-0.98496	-0.65674	0.040588	0.055695	-0.46417	0.66208	-0.015564	-0.4892	0.085144	0.043945	0.09491	-0.028534	-0.14389	-0.000305	-0.018616
37.737	-0.002136	-0.4509	0.053711	0.016174	0.031586	-0.015564	0.1944	0.001373	0.18936	-0.17624	-0.028839	0.03418	-0.14877	0.044403	0.079803	0.006561	-0.011749	-1.0829	-0.62836	-0.002289	-0.015259	-0.13687	0.76981	-0.068207	-0.48553	0.040894	0.080261	0.01709	0.00885	-0.21698	0.003662	-0.013275
37.738	-0.023956	-0.44067	0.075989	0.03006	0.032043	0.016632	0.22629	-0.008545	0.19821	-0.12894	-0.03479	0.023346	-0.13046	0.048523	0.048523	0.020905	-0.001526	-1.0143	-0.68115	-0.099335	-0.016632	0.43884	0.65109	-0.20752	-0.30792	0.031891	0.075378	-0.031128	0.21545	-0.061951	0.000458	-0.013733
37.739	-0.027924	-0.30624	0.074463	0.023041	0.027313	0.034485	0.23773	-0.003204	0.18875	-0.096436	-0.044098	0.024261	-0.15656	0.038147	-0.000458	0.015106	0.003204	-0.84061	-0.63965	-0.18601	-0.035858	0.42206	0.46036	-0.26413	-0.1741	0.0177	0.10025	-0.027466	0.30746	-0.033722	-0.002594	-0.009155
37.74	-0.028076	-0.16159	0.086975	0.031586	0.022888	0.027466	0.25085	-0.002289	0.18433	-0.083466	-0.029449	0.021667	-0.12405	0.031128	-0.024109	0.011139	-0.002899	-0.76889	-1.2935	-0.2861	-0.04425	0.17731	0.3479	-0.31158	-0.074005	0.011749	0.11551	-0.019684	-0.33859	-0.18112	-0.002747	-0.006256
37.741	-0.021057	-0.083618	0.083771	0.015259	0.024719	-0.018616	0.24872	0.000763	0.19302	-0.063171	0.00061	0.022278	-0.12528	0.054932	0.012207	0.015564	0.017395	-0.84198	-1.7058	-0.35156	-0.053711	-0.069733	0.44388	-0.2211	-0.070496	0.008392	0.052795	-0.002594	-0.43594	-0.36758	-0.006409	-0.007935
37.742	-0.02594	-0.049591	0.05127	0.013428	0.019989	0.025177	0.24612	-0.00061	0.21378	-0.065765	0.056152	0.016022	-0.11078	0.059204	0.054626	0.00473	0.038452	-1.0822	-0.62698	-0.10376	-0.022125	-0.10956	0.4834	-0.064545	0.046234	0.010071	-0.072021	0.012665	0.12405	-0.47821	-0.003967	-0.011902
37.743	-0.02243	-0.048218	0.022278	0.014496	0.016937	0.023651	0.27359	-0.007629	0.22476	-0.084381	0.096741	0.012665	-0.12955	0.070496	0.050354	0.00824	0.066223	-1.1404	-0.075836	0.08606	0.071106	-0.12024	0.57526	0.052185	0.094299	0.002136	0.073547	0.009308	0.049744	-0.31158	0.001221	-0.014954
37.744	-0.017395	-0.026703	0.030365	-0.0177	0.020752	0.040588	0.289	-0.007935	0.25253	-0.076294	0.043335	0.014343	-0.11932	0.054474	0.012054	0.013123	0.066376	-1.3147	-0.58029	0.074768	0.16159	-0.13458	0.49667	0.23422	0.087433	-0.05188	0.31113	-0.026703	-0.21133	0.034485	-0.002899	-0.019836
37.745	-0.006256	0.030975	0.033722	-0.02594	0.029297	0.019379	0.2623	-0.006104	0.28671	-0.05722	0.045471	0.016327	-0.1265	0.040894	-0.071259	0.009918	0.035553	-1.2682	-0.63675	-0.17944	0.070496	-0.45563	0.30533	0.22156	0.121	-0.023193	0.28107	-0.028076	-0.70419	0.037231	-0.002747	-0.023804
37.746	-0.014801	0.1416	0.008087	-0.013733	0.019531	0.010529	0.23193	-0.008087	0.31204	-0.063324	0.040894	0.00946	-0.16113	0.049591	-0.1532	0.001373	-0.016327	-1.2433	-0.98114	-0.22553	-0.15991	-0.77057	0.19318	0.18005	0.10513	-0.049438	0.024414	-0.033875	1.0645	0.041809	-0.001984	-0.016479
37.747	-0.026703	0.20691	0.016022	-0.001068	0.031281	-0.023499	0.22049	-0.013275	0.31433	-0.03952	0.045929	0.031738	-0.14755	-0.000153	-0.28641	0.007629	-0.033417	-1.1476	-1.8124	-0.071869	-0.098419	-0.65796	0.15152	0.10498	0.090485	-0.089722	-0.070496	-0.049744	1.9456	0.039063	-0.003662	-0.011597
37.748	-0.007629	0.24033	0.02243	0.009155	0.036011	-0.077209	0.17929	-0.00824	0.29541	-0.05661	0.042877	0.018768	-0.15015	0.001984	-0.24063	0.000458	-0.017395	-1.1031	-1.0985	0.057068	-0.056763	-0.63217	0.24841	0.066071	0.13138	-0.049896	0	-0.066376	2.5066	-0.017853	-0.003662	-0.008087
37.749	0.000458	0.28717	0.028992	0.014801	0.036469	-0.093384	0.16281	-0.015106	0.26566	-0.055237	-0.023041	0.010986	-0.12283	0.011902	-0.18158	0.015717	-0.008698	-0.86151	0.55924	0.22324	0.001678	-0.46188	0.39719	-0.010376	0.074768	-0.16632	-0.1413	0.037994	2.2295	-0.14404	0.002594	-0.002747
37.75	0.003357	0.34943	0.017548	-0.00061	0.036621	-0.044861	0.16724	-0.009613	0.22598	-0.063782	-0.14694	-0.003967	-0.080414	0.002441	-0.079956	0.015411	-0.03067	-0.802	0.439	0.2977	0.11246	-0.33127	0.43961	0.1619	0.014954	-0.15579	-0.23758	-0.013885	1.6097	-0.18585	-0.001526	-0.000305
37.751	0.010071	0.38162	0.030975	0.005646	0.043488	0.000763	0.1767	-0.007629	0.21088	-0.044861	-0.17792	0.017548	-0.090637	-0.009766	0.030365	0.015106	-0.028992	-0.79224	-0.064697	0.20584	0.084076	0.020294	0.32623	-0.13077	-0.038147	-0.039368	-0.17685	0.064697	-0.75684	0.18204	-0.001221	-0.003204
37.752	0.007019	0.43259	0.04776	-0.012665	0.0177	0.001984	0.18585	-0.005341	0.1828	-0.073853	-0.19562	0.005493	-0.08606	-0.015869	0.059204	0.012817	0.011292	-0.63767	-1.0287	0.11658	0.11353	0.59372	0.20569	-0.47775	-0.005951	-0.066986	-0.039673	0.065765	-2.6936	0.22736	-0.002136	-0.00885
37.753	0.004883	0.4866	0.028687	-0.007935	0.027161	0.032654	0.17395	-0.005341	0.15503	-0.081177	-0.23987	0.015259	-0.007172	0.023651	0.03418	0.02594	0.031128	-0.33966	-1.293	0.14069	-0.11856	0.35797	0.13901	-0.52338	0.053101	-0.066833	0.072784	0.088043	-3.0638	-0.18143	-0.001221	-0.010223
37.754	0.003052	0.60196	0	0.016632	0.018768	0.029297	0.14465	-0.003204	0.1503	-0.072174	-0.10727	0.017853	-0.014038	0.011902	0.032806	0.014954	0.063171	-0.003815	-0.36057	0.12253	0.004883	-0.20783	0.09079	-0.49911	0.097351	0.055237	0.062408	-0.011139	-2.8345	-0.37643	-0.00061	-0.003357
37.755	-0.001221	0.72037	0.007629	0.016785	0.021362	0.054932	0.2095	-0.009308	0.13977	-0.082703	0.10986	0.009003	-0.037079	-0.016937	0.056763	0.01709	0.094452	0.13092	0.96039	0.086212	0.049744	-0.18753	0.13779	-0.27451	0.13534	0.072784	-0.039673	-0.019684	-1.7221	-0.010834	0.000305	-0.012665
37.756	-0.007782	0.81009	0.019684	0.015259	0.013123	0.03067	0.24139	-0.002136	0.11765	-0.061646	0.15732	0.014801	-0.071106	-0.039673	0.059814	0.011292	0.029907	-0.09613	0.80154	-0.015259	-0.1239	0.10834	0.12558	-0.03952	0.16663	0.082245	-0.078583	-0.002899	-1.7229	0.2536	-0.00473	0.013275
37.757	-0.006866	0.90485	0.039215	0.027008	0.017395	0.047302	0.26215	-0.001831	0.08606	-0.04303	-0.04837	0.003815	-0.076904	-0.03067	-0.066528	0.014496	0.005951	-0.31937	-0.002899	-0.08667	-0.050507	0.22766	0.22553	0.10941	0.18997	0.056152	-0.070953	0.001068	1.1453	-0.041351	-0.001068	-0.001526
37.758	-0.005035	1.0234	0.053101	0.037842	0.018158	0.0177	0.27359	0.006104	0.029602	-0.050201	0.026245	0.007019	-0.11612	-0.001068	0.083313	0.012512	-0.031891	-0.23651	-0.68039	-0.14557	0.2211	0.025482	0.1976	0.22659	0.16953	-0.007019	0.18875	-0.018158	1.3303	-0.35263	0.001221	-0.006104
37.759	-0.005493	1.0876	0.055084	0.004425	0.018768	0.039063	0.29816	-0.001678	-0.010986	-0.055084	0.24567	0.002441	-0.18478	0.003815	0.54367	0.007935	-0.082397	-0.13825	-0.14008	0.023193	-0.21271	-0.15045	0.087891	0.52658	0.13123	-0.026855	0.22888	-0.010834	0.44357	-0.2034	-0.005646	-0.02243
37.76	0.007172	1.1665	0.072327	-0.028687	0.017853	0.028229	0.30991	-0.000153	-0.05127	-0.05188	0.46219	0.005188	-0.19516	0.03952	0.15274	0.004883	-0.076904	0.052185	0.46051	0.000458	-0.21439	-0.1796	-0.17395	0.49439	0.13138	0.014648	-0.10895	-0.014648	0.85678	-0.022888	-0.003052	-0.018768
37.761	-0.007172	1.212	0.085144	0.019379	0.020905	0.039368	0.30884	0.00412	-0.067139	0.054932	0.63797	0.00412	-0.18478	0.06012	0.10956	-0.002594	-0.054016	0.18372	0.34775	-0.11993	-0.041504	0.057678	-0.24551	0.44464	0.24979	-0.005188	-0.34332	-0.017395	0.3392	0.10178	-0.005493	-0.016632
37.762	-0.008698	1.2552	0.086365	0.00351	0.021057	0.037079	0.28992	0.003967	-0.084381	0.090332	0.51468	0.001984	-0.1738	0.10346	0.15778	-0.00351	-0.020905	0.18036	0.48645	-0.077972	0.042572	0.51926	-0.12253	0.4808	0.10925	-0.032501	-0.20035	-0.013733	-0.45319	0.23422	-0.000916	-0.018005
37.763	-0.009308	1.2514	0.086823	0.004425	0.018463	0.021057	0.20798	-0.001984	-0.087891	-0.008087	-0.010681	0.003204	-0.004272	0.19836	0.24582	0.012207	-0.06134	0.1561	-0.16937	0.041199	0.14832	0.66895	-0.063324	0.54306	-0.25055	-0.033112	0.031281	-0.019684	-0.57434	0.11383	0.000153	-0.018463
